<svg fill="none" viewBox="0 0 91 85" xmlns="http://www.w3.org/2000/svg"><path d="M40 84.801c22.091 0 40-17.909 40-40s-17.909-40-40-40-40 17.909-40 40 17.909 40 40 40z" fill="#43ff53"/><path d="M40 84.801c22.091 0 40-17.909 40-40s-17.909-40-40-40-40 17.909-40 40 17.909 40 40 40z" fill="#fff" opacity=".8"/><path d="M64.214 7.5071L9.457 24.7601c-.5055.1582-.97294.4089-1.3756.7376-.40261.3288-.7325.7291-.9708 1.1781-.23829.4491-.3803.938-.4179 1.4389-.03761.5008.02993 1.0037.19874 1.4799l14.478 40.872c.3411.9616 1.0732 1.7564 2.0356 2.2095.9623.4532 2.0761.5277 3.0967.2073l54.758-17.253c.5052-.1587.9723-.4098 1.3745-.7389.4023-.329.7317-.7296.9695-1.1788.2379-.4492.3794-.9382.4165-1.439.0372-.5008-.0308-1.0035-.2-1.4796l-14.493-40.893c-.3444-.95442-1.0752-1.7418-2.033-2.1903-.9578-.44854-2.0649-.52189-3.0799-.20407zm-11.143 5.346c.6288-.1969 1.3055-.2137 1.9444-.0483.6389.1655 1.2115.5057 1.6453.9778.4339.4721.7095 1.0549.7921 1.6746s-.0315 1.2486-.328 1.8072c-.2964.5585-.7619 1.0218-1.3376 1.3311-.5756.3093-1.2356.4508-1.8966.4066-.6609-.0442-1.2931-.272-1.8167-.6548-.5237-.3828-.9151-.9032-1.125-1.4957-.1396-.3938-.1954-.8098-.1642-1.224.0311-.4142.1486-.8186.3457-1.19s.47-.7025.803-.9744.7195-.4792 1.1376-.6101zm-31.314 9.8598c.6288-.1969 1.3054-.2137 1.9443-.0482.639.1654 1.2116.5057 1.6454.9778s.7095 1.0548.7921 1.6745-.0316 1.2486-.328 1.8072c-.2965.5586-.7619 1.0218-1.3376 1.3311s-1.2357.4508-1.8966.4066c-.661-.0441-1.2932-.272-1.8168-.6548-.5236-.3827-.9151-.9032-1.125-1.4956-.1395-.3939-.1953-.8098-.1642-1.2241.0312-.4142.1487-.8186.3458-1.1899.1971-.3714.4699-.7025.8029-.9744s.7196-.4792 1.1377-.6102z" fill="#43ff53"/><path d="M64.214 7.5071L9.457 24.7601c-.50551.1582-.97294.4089-1.3756.7376-.40261.3288-.7325.7291-.97079 1.1782-.23829.449-.38031.9379-.41791 1.4388-.03761.5008.02993 1.0037.19875 1.4799l2.0034 5.6743 62.457-19.675-2.005-5.6775c-.1689-.47604-.4357-.91603-.7851-1.2948s-.7746-.6889-1.2513-.91263c-.4767-.22374-.9955-.35669-1.5268-.39127-.5312-.03458-1.0645.0299-1.5693.18975z" fill="#43ff53"/><path d="M64.214 7.5071L36.086 16.364c4.2966 4.534 8.0228 9.521 11.104 14.862 5.6763 9.8879 9.0706 20.795 9.96 32.007l24.106-7.5893c.5053-.1587.9724-.4098 1.3746-.7388.4023-.3291.7317-.7296.9695-1.1788s.3794-.9382.4165-1.439c.0372-.5008-.0308-1.0036-.2-1.4796l-14.493-40.893c-.3417-.95628-1.071-1.7462-2.0287-2.1972-.9576-.45098-2.0657-.52637-3.0821-.2097z" fill="url(#a)" style="mix-blend-mode:soft-light"/><path d="M6.5241 29.016l14.604 42.16c.1339.3892.3527.747.6437 1.0528s.6486.5536 1.0524.7293c.4037.1757.8457.2758 1.3005.2946.4549.0188.9137-.044 1.3503-.185l5.2018-1.6734-16.654-48.088-5.2047 1.6747c-.43641.141-.84199.3573-1.1935.6365-.35153.2792-.64212.6158-.85514.9906-.21303.3748-.34431.7804-.38635 1.1936-.04203.4132.006.8259.14136 1.2146z" fill="#000" opacity=".4"/><path d="M40.016 55.804c2.1321-.3571 3.5189-2.5461 3.0819-4.8646-.1986-1.0538-.7849-2.0427-1.4855-2.5776l.8625-6.1212.9722-.0565c.9691-.1623 2.0655-1.5704 2.5278-2.3l5.6224 2.3v.8093c.437 2.3184 2.539 3.9231 4.6711 3.5661 2.132-.3571 3.5189-2.5462 3.0819-4.8646-.1986-1.0538-1.135-2.3312-1.8754-3.0769l1-5.8036 1.2245.1252c2.1321-.3571 3.519-2.5461 3.082-4.8646-.4371-2.3184-2.539-3.9232-4.6711-3.5661s-3.5189 2.5461-3.0819 4.8646c.1986 1.0538 1.0523 2.3302 1.7529 2.8651l-1.3064 5.8902h-.7956c-.9692.1623-2.2421 1.0256-2.7044 1.7553l-5.5-1.8853.0541-.6792c-.437-2.3185-2.539-3.9232-4.6711-3.5661-2.132.357-3.5189 2.5461-3.0819 4.8645.1987 1.0539 1.3793 2.2707 2.08 2.8056l-1.0479 5.9846-1.3812-.0349c-2.1321.3571-3.5189 2.5462-3.0819 4.8646.437 2.3185 2.5389 3.9232 4.671 3.5661z" fill="#F7FAFC"/><defs><linearGradient id="a" x1="69.123" x2="53.798" y1="59.463" y2="10.785" gradientUnits="userSpaceOnUse"><stop stop-opacity=".8" offset="0"/><stop stop-color="#fff" stop-opacity="0" offset="1"/></linearGradient></defs></svg>