<svg fill="none" viewBox="0 0 80 96" xmlns="http://www.w3.org/2000/svg"><path d="M40 95.948c22.091 0 40-17.909 40-40s-17.909-40-40-40-40 17.909-40 40 17.909 40 40 40z" fill="#43ff53"/><path d="M40 95.948c22.091 0 40-17.909 40-40s-17.909-40-40-40-40 17.909-40 40 17.909 40 40 40z" fill="#fff" opacity=".8"/><path d="M50.653.7385L19.148 4.8414c-1.7457.22735-2.9765 1.8268-2.7492 3.5724l8.4814 65.125c.2273 1.7457 1.8268 2.9765 3.5724 2.7492l31.505-4.1029c1.7457-.2274 2.9765-1.8268 2.7492-3.5725l-8.4814-65.125C53.9981 1.7419 52.3986.5111 50.653.7384z" fill="#43ff53"/><path d="M61.631 60.339L55.3007 11.76l-14.645 1.9065c2.6103 7.8568 3.819 16.111 3.571 24.386-.2628 8.7108-2.1785 17.292-5.6451 25.288l23.05-3.0013z" fill="url(#a)" style="mix-blend-mode:soft-light"/><path d="M43.463 71.596c1.6987 0 3.0758-1.377 3.0758-3.0757 0-1.6988-1.3771-3.0758-3.0758-3.0758s-3.0758 1.377-3.0758 3.0758c0 1.6987 1.3771 3.0757 3.0758 3.0757z" fill="#fff"/><path d="M39.672 7.4138l-8.1922 1.065c-.0494.00593-.0991-.008-.1382-.03873s-.0644-.07573-.0703-.12511.008-.09909.0387-.1382c.0308-.0391.0758-.0644.1251-.07033l8.1922-1.0687c.0494-.00642.0993.00704.1387.03742.0395.03038.0653.07518.0717.12456s-.0071.09929-.0374.13874c-.0304.03946-.0752.06523-.1246.07165l-.0037.00372z" fill="#000"/><defs><linearGradient id="a" x1="46.297" x2="52.666" y1="7.8907" y2="56.39" gradientUnits="userSpaceOnUse"><stop stop-color="#fff" stop-opacity="0" offset="0"/><stop stop-opacity=".8" offset="1"/></linearGradient></defs></svg>