<svg fill="none" viewBox="0 0 80 85" xmlns="http://www.w3.org/2000/svg"><path d="M40.882 84.229c19.304 0 34.953-15.649 34.953-34.953S60.186 14.323 40.882 14.323c-19.304 0-34.953 15.649-34.953 34.953s15.649 34.953 34.953 34.953z" fill="#43ff53"/><path d="M40.882 84.229c19.304 0 34.953-15.649 34.953-34.953S60.186 14.323 40.882 14.323c-19.304 0-34.953 15.649-34.953 34.953s15.649 34.953 34.953 34.953z" fill="#fff" opacity=".8"/><path d="M54.328 4.9868l3.1849 20.31c.0968.6201.0705 1.2532-.0774 1.8631-.1479.61-.4145 1.1848-.7845 1.6918-.3701.5069-.8364.9359-1.3723 1.2626s-1.1308.5446-1.751.6414l-35.844 5.6216-6.2235 6.9846-.5465-5.9241-2.2089.3448c-1.2504.1938-2.5266-.1163-3.5487-.8621-1.0221-.7459-1.7067-1.8667-1.9037-3.1165L.0577 13.494c-.19559-1.2523.11393-2.531.86057-3.5551.74663-1.0242 1.8693-1.7101 3.1214-1.907l44.836-7.027c1.2509-.19366 2.5275.11684 3.5497.86337 1.0222.74652 1.7065 1.8681 1.9027 3.1186z" fill="#43ff53"/><path d="M47.359 12.183L8.903 18.2112c-.24251.0247-.48526-.0445-.67833-.1933-.19306-.1488-.32179-.3659-.3597-.6067s.01787-.487.15588-.6879.34775-.3414.5861-.3924l38.46-6.0282c.1235-.0193.2495-.014.371.0155.1214.0295.2358.0826.3367.1563s.1863.1666.2513.2733.1084.2252.1276.3487c.0192.1234.0139.2495-.0156.3709-.0294.1214-.0826.2358-.1563.3367s-.1665.1863-.2732.2513c-.1068.065-.2252.1084-.3487.1276zM48.166 17.32l-38.46 6.0283c-.12346.0192-.24951.0139-.37093-.0156-.12143-.0295-.23586-.0826-.33675-.1563-.1009-.0737-.18629-.1666-.2513-.2733s-.10837-.2252-.12759-.3486c-.01923-.1235-.01395-.2495.01554-.371.02949-.1214.0826-.2358.15631-.3367s.16657-.1863.27329-.2513c.10671-.065.22518-.1084.34864-.1276l38.456-6.025c.1233-.0194.2492-.0144.3705.0148s.2356.0821.3365.1555.1864.1659.2515.2724c.0651.1064.1087.2246.1281.3479.0194.1232.0144.2491-.0148.3704s-.082.2357-.1554.3366-.166.1863-.2724.2515c-.1065.0651-.2247.1086-.3479.128zM40.892 23.719l-30.379 4.766c-.2489.0393-.5032-.022-.70699-.1702-.20378-.1483-.34031-.3714-.37957-.6203-.03925-.2489.02198-.5033.17023-.707.14826-.2038.37139-.3403.62033-.3796l30.378-4.7627c.2362-.0137.469.0609.6532.2093.1842.1483.3066.3599.3435.5935.037.2337-.0143.4727-.1438.6706s-.328.3407-.5568.4004z" fill="#fff"/><path d="M54.327 4.9868l3.1816 20.31c.0973.6199.0714 1.2529-.0761 1.8629-.1475.6099-.4138 1.1848-.7836 1.6918-.3698.5069-.8358.936-1.3716 1.2628-.5357.3267-1.1306.5447-1.7506.6414l-18.683 2.9279c.343-5.2896-.1946-10.6-1.5909-15.713-1.3178-4.8102-3.3745-9.3867-6.0965-13.566l21.715-3.3996c1.2513-.19372 2.5283.11669 3.551.86315s1.7077 1.868 1.9047 3.1188z" fill="url(#b)" style="mix-blend-mode:soft-light"/><path d="M37.437 29.438l-4.5805 20.04c-.2826 1.2337-.0646 2.529.6062 3.6023.6707 1.0732 1.7396 1.8368 2.9723 2.1234l24.256 5.55 5.7224 7.4011.9597-5.8721 2.1797.4977c1.2338.2844 2.53.0672 3.6037-.6039 1.0736-.671 1.8369-1.741 2.122-2.9746l4.587-20.04c.2822-1.2364.062-2.5342-.612-3.6083-.674-1.0742-1.7468-1.8369-2.9828-2.1207l-33.105-7.5865c-1.2359-.2822-2.5332-.0626-3.6073.6108s-1.8371 1.7454-2.1216 2.9808z" fill="#43ff53"/><path d="M79.875 39.152l-4.587 20.027c-.2851 1.2336-1.0483 2.3036-2.122 2.9746-1.0737.6711-2.3699.8883-3.6037.604l-2.1796-.4978-.9597 5.8721-5.7224-7.4011-8.8065-2.017c2.1711-3.7574 3.9045-7.7513 5.1661-11.904 1.6966-5.5881 2.5304-11.402 2.4724-17.242l16.748 3.8323c.6144.1404 1.195.4007 1.7086.766.5135.3654.9498.8286 1.2838 1.363s.5592 1.1296.6625 1.7513c.1034.6217.083 1.2576-.0601 1.8714z" fill="url(#a)" style="mix-blend-mode:soft-light"/><rect transform="rotate(57.896 49.901 33.589)" x="49.901" y="33.589" width="8.6342" height="2.2071" rx="1.1035" fill="#fff"/><rect transform="rotate(162.9 54.186 41.479)" x="54.186" y="41.479" width="8.6342" height="2.1952" rx="1.0976" fill="#fff"/><rect transform="matrix(-.84708 .53146 .53146 .84708 65.886 37.248)" width="8.6342" height="2.293" rx="1.1465" fill="#fff"/><rect transform="matrix(.73259 .68067 .68067 -.73259 58.594 42.489)" width="8.6342" height="2.2145" rx="1.1072" fill="#fff"/><path d="M60.371 48.26c.5384.1233.8822.6641.6777 1.1772-1.1538 2.894-4.2749 4.5964-7.4067 3.8794-3.1318-.7171-5.2013-3.6079-4.981-6.7156.0391-.5509.584-.8883 1.1224-.7651l10.588 2.4241z" fill="#fff"/><defs><linearGradient id="b" x1="45.045" x2="40.381" y1="32.086" y2="2.334" gradientUnits="userSpaceOnUse"><stop offset="0"/><stop stop-color="#fff" stop-opacity="0" offset="1"/></linearGradient><linearGradient id="a" x1="61.736" x2="69.779" y1="67.08" y2="31.933" gradientUnits="userSpaceOnUse"><stop stop-opacity=".8" offset="0"/><stop stop-color="#fff" stop-opacity="0" offset="1"/></linearGradient></defs></svg>